<svg width="173" height="68" viewBox="0 0 173 68" fill="none" xmlns="http://www.w3.org/2000/svg">
<g clip-path="url(#clip0)">
<path d="M72.1286 19.7119C70.5905 17.8905 68.769 16.4738 66.5429 15.4619C64.3571 14.45 61.7667 13.9238 58.8524 13.9238C55.9381 13.9238 53.3071 14.45 51 15.5024C48.6929 16.5547 46.75 17.9714 45.1714 19.7119C43.5929 21.4524 42.3786 23.4762 41.5286 25.8238C40.719 28.1714 40.2738 30.6 40.2738 33.1095C40.2738 35.9833 40.719 38.6143 41.6095 41.0024C42.5 43.3905 43.8357 45.4143 45.5357 47.1143C47.2762 48.8143 49.3405 50.15 51.8095 51.0809C54.2786 52.0119 57.0309 52.4976 60.1071 52.4976C62.4143 52.4976 64.4786 52.2952 66.2595 51.85C68.0405 51.4047 69.619 50.919 70.9143 50.3524C72.2095 49.7857 73.3024 49.219 74.1119 48.6119C74.9619 48.0452 75.569 47.6 75.9738 47.3571L71.4 40.3143C70.5905 40.9214 69.2548 41.65 67.4738 42.5C65.6929 43.3095 63.3452 43.7547 60.4714 43.7547C57.5571 43.7547 55.25 43.0262 53.5905 41.569C51.8905 40.1119 51.0405 38.4119 51 36.469H76.7024V34.6071C76.7024 31.5714 76.3381 28.819 75.569 26.269C74.8 23.719 73.6262 21.5333 72.1286 19.7119ZM51.0809 29.4262C51.0809 28.6571 51.2429 27.8881 51.5667 27.0786C51.8905 26.3095 52.3762 25.5809 53.0238 24.8928C53.6714 24.2047 54.4809 23.6786 55.4524 23.2333C56.4238 22.7881 57.5571 22.5857 58.8524 22.5857C60.1476 22.5857 61.2405 22.7881 62.1714 23.2333C63.1024 23.6786 63.8714 24.2452 64.4786 24.8928C65.0857 25.5405 65.5309 26.3095 65.8548 27.0786C66.1381 27.8881 66.3 28.6571 66.3 29.4262H51.0809Z" fill="white"/>
<path d="M101.919 14.369C99.8143 14.369 97.7905 14.7738 95.8881 15.6643C93.9452 16.5548 92.4071 17.6881 91.2333 19.1452L90.9095 15.219H80.3048H80.2643V51.2833H91.2738V31.8952C91.2738 30.8024 91.3952 29.831 91.719 28.8595C92.0024 27.8881 92.4881 27.0786 93.0952 26.35C93.7024 25.6214 94.4714 25.0548 95.4024 24.6095C96.3333 24.1643 97.4262 23.9619 98.6405 23.9619C100.462 23.9619 101.838 24.569 102.85 25.7429C103.862 26.9167 104.348 28.5357 104.348 30.5191V51.2833H115.438V28.981C115.438 24.1643 114.224 20.5214 111.795 18.0524C109.367 15.5833 106.088 14.369 101.919 14.369Z" fill="white"/>
<path d="M131.993 15.219H120.902V51.2833H131.993V15.219Z" fill="white"/>
<path d="M132.357 0H120.498V9.91667H132.357V0Z" fill="white"/>
<path d="M172.388 34.6071C172.388 31.5714 172.024 28.819 171.255 26.269C170.486 23.719 169.312 21.5333 167.814 19.7119C166.276 17.8905 164.455 16.4738 162.229 15.4619C160.043 14.45 157.452 13.9238 154.538 13.9238C151.624 13.9238 148.993 14.45 146.686 15.5024C144.379 16.5547 142.436 17.9714 140.857 19.7119C139.279 21.4524 138.024 23.4762 137.214 25.8238C136.405 28.1714 135.959 30.6 135.959 33.1095C135.959 35.9833 136.405 38.6143 137.295 41.0024C138.186 43.3905 139.521 45.4143 141.221 47.1143C142.962 48.8143 145.026 50.15 147.495 51.0809C149.964 52.0119 152.717 52.4976 155.793 52.4976C158.1 52.4976 160.164 52.2952 161.945 51.85C163.726 51.4047 165.305 50.919 166.6 50.3524C167.895 49.7857 168.988 49.219 169.798 48.6119C170.648 48.0452 171.255 47.6 171.66 47.3571L167.086 40.3143C166.276 40.9214 164.94 41.65 163.16 42.5C161.379 43.3095 159.031 43.7547 156.157 43.7547C153.243 43.7547 150.936 43.0262 149.276 41.569C147.576 40.1119 146.726 38.4119 146.686 36.469H172.388V34.6071ZM146.767 29.4262C146.767 28.6571 146.929 27.8881 147.252 27.0786C147.576 26.3095 148.062 25.5809 148.709 24.8928C149.357 24.2047 150.167 23.6786 151.138 23.2333C152.109 22.7881 153.243 22.5857 154.538 22.5857C155.833 22.5857 156.926 22.7881 157.857 23.2333C158.788 23.6786 159.557 24.2452 160.164 24.8928C160.771 25.5405 161.217 26.3095 161.54 27.0786C161.824 27.8881 161.986 28.6571 161.986 29.4262H146.767Z" fill="white"/>
<path d="M36.3476 17.0405C34.2429 16.3119 31.8548 15.6643 29.2643 15.1786C26.5524 14.6524 23.719 14.4095 20.7643 14.4095C17.6476 14.4095 14.8143 14.8548 12.2643 15.7857C9.71429 16.7167 7.52857 18.0524 5.70714 19.7524C3.88571 21.4929 2.46905 23.5167 1.49762 25.9048C0.485714 28.2929 0 30.9238 0 33.8786C0 36.3881 0.364286 38.6952 1.13333 40.8C1.8619 42.9048 2.95476 44.7262 4.33095 46.2643C4.41191 46.3857 4.53333 46.4667 4.65476 46.5881C5.95 47.9643 7.52857 48.8952 9.39048 49.6643H9.47143C9.59286 49.4214 9.75476 49.219 9.91667 49.0167C9.91667 48.9762 9.95714 48.9762 9.95714 48.9357L9.99762 48.8548C10.0381 48.8143 10.0786 48.7738 10.119 48.7333L10.1595 48.6929C10.8881 47.9238 11.819 47.3571 12.9119 47.1143C12.9929 47.0738 13.1143 47.0738 13.2357 47.0333C13.2762 47.0333 13.3571 47.0333 13.3976 46.9929C13.3167 46.9524 13.2762 46.9119 13.2357 46.8309C13.0738 46.669 12.9929 46.4262 12.9524 46.1833C12.9524 46.1429 12.9524 46.1024 12.9524 46.0619C12.9524 45.4548 13.4381 44.9286 14.0857 44.9286C14.6929 44.9286 15.219 45.4143 15.219 46.0619C15.219 46.1024 15.219 46.1024 15.219 46.1429C15.219 46.3857 15.0976 46.6286 14.9357 46.7905C14.8952 46.8309 14.8548 46.8714 14.7738 46.9524C14.8143 46.9524 14.8548 46.9524 14.9357 46.9524C15.0976 46.9929 15.2595 46.9929 15.4214 47.0333C17 47.3976 18.2952 48.45 18.9833 49.8262C19.8738 49.7452 20.7643 49.5024 21.6143 49.2595C22.7881 48.9357 23.9619 48.6119 25.1357 48.3286C25.9857 48.1262 26.8762 47.9238 27.7262 47.7619C28.6167 47.6 29.5476 47.4786 30.4786 47.5595C30.7214 47.6 30.9643 47.6 31.1667 47.681C31.3691 47.7214 31.6929 48.0452 32.0167 48.369C32.3 48.6524 32.5833 48.9762 32.7452 49.2595C32.5024 49.219 32.2595 49.219 31.9762 49.219C28.9 49.219 26.1881 50.8786 24.6905 53.3071C24.4881 53.5905 24.3667 53.8333 24.2048 54.1571C24.1643 54.2381 24.2048 54.2855 24.1238 54.3595C24.1238 54.3693 24.0833 54.4809 24.0429 54.5214C23.9619 54.6833 23.881 54.8452 23.7595 55.0476C23.3548 55.7357 22.9095 56.3429 22.4238 56.8286C22.3833 56.869 22.3429 56.95 22.2619 56.9905C20.3595 59.0143 17.6071 60.269 14.6119 60.269C11.5357 60.269 8.78333 58.9738 6.84048 56.869L6.8 56.95L3.15714 63.5476C3.07619 63.669 3.11667 63.7905 3.2381 63.8714C5.18095 65.1262 7.77143 66.5024 10.0786 67.1095C12.5071 67.7167 15.0976 68 18.3357 68C22.3833 68 25.7024 67.069 28.4952 65.5309C29.6286 64.8833 30.6405 64.1548 31.5714 63.3048C34.7691 60.5524 36.4286 56.2619 36.5095 50.5143C36.5095 50.3929 36.5095 50.231 36.5095 50.1095V17.2833C36.5095 17.1619 36.4286 17.0809 36.3476 17.0405ZM23.7595 40.3952C23.1119 40.9619 22.3429 41.3667 21.4524 41.65C20.6024 41.8929 19.631 42.0548 18.5381 42.0548C16.1095 42.0548 14.2881 41.2857 13.0333 39.7476C12.9524 39.6262 12.8714 39.5452 12.7905 39.4238C11.6976 37.9262 11.131 35.9833 11.131 33.5143C11.131 32.1786 11.3333 30.9238 11.6976 29.7095C12.1024 28.4952 12.669 27.4429 13.4786 26.5524C14.2881 25.6619 15.2595 24.9333 16.4333 24.4071C17.6071 23.8809 18.9833 23.5976 20.6024 23.5976C21.7762 23.5976 22.7071 23.6786 23.4357 23.8C24.0833 23.9214 24.7714 24.0833 25.4191 24.3262C25.5 24.3667 25.581 24.4476 25.581 24.569V35.2143H25.6214C25.6214 37.5619 25.0143 39.3024 23.7595 40.3952Z" fill="white"/>
</g>
<defs>
<clipPath id="clip0">
<rect width="172.388" height="68" fill="white"/>
</clipPath>
</defs>
</svg>
